<svg width="21" height="21" viewBox="0 0 21 21" fill="none" xmlns="http://www.w3.org/2000/svg">
<path d="M14.1543 2.61401C14.2324 2.69214 14.3496 2.77026 14.4277 2.77026C14.5449 2.77026 14.6621 2.69214 14.7402 2.61401L15.5605 1.7937C15.6387 1.71558 15.6777 1.59839 15.6777 1.52026C15.6777 1.40308 15.6387 1.28589 15.5605 1.20776L14.7402 0.387451C14.584 0.192139 14.3105 0.192139 14.1543 0.387451L13.334 1.20776C13.2559 1.28589 13.1777 1.40308 13.1777 1.4812C13.1777 1.59839 13.2559 1.71558 13.334 1.7937L14.1543 2.61401ZM16.1855 7.7312C15.1309 7.7312 14.1543 8.16089 13.4121 8.90308L12.4746 9.84058C12.2012 10.114 11.8496 10.2312 11.459 10.2312H9.66211C10.0527 9.37183 10.209 8.3562 9.93555 7.30151C9.54492 5.66089 8.13867 4.33276 6.45898 4.05933C5.05273 3.82495 3.68555 4.25464 2.70898 5.19214C2.39648 5.46558 2.43555 5.93433 2.74805 6.1687L3.76367 6.91089C3.99805 7.1062 4.31055 7.1062 4.50586 6.91089C4.85742 6.63745 5.24805 6.4812 5.67773 6.4812C6.73242 6.4812 7.55273 7.34058 7.55273 8.3562C7.55273 9.41089 6.73242 10.2312 5.67773 10.2312H4.4668C3.99805 10.2312 3.68555 10.739 3.88086 11.1687L4.50586 12.4187C4.62305 12.614 4.81836 12.7312 5.01367 12.7312H6.30273C7.70898 12.7312 8.80273 13.864 8.80273 15.2312C8.80273 16.6375 7.70898 17.7312 6.30273 17.7312C2.55273 17.7312 1.53711 15.6218 0.638672 14.1375C0.482422 13.864 0.0917969 14.0203 0.0917969 14.3718C0.0527344 16.4812 1.69336 20.2312 6.30273 20.2312C9.07617 20.2312 11.3027 18.0046 11.3027 15.2312C11.3027 14.3328 11.0684 13.4734 10.6387 12.7312H11.459C12.5137 12.7312 13.4902 12.3406 14.2324 11.5984L15.1699 10.6609C15.4434 10.3875 15.7949 10.2312 16.1855 10.2312C16.9277 10.2312 17.5527 10.8953 17.5527 11.6375V15.5437C17.5527 16.0906 16.8496 16.4812 16.3027 16.4812C14.7793 16.4812 13.7246 15.5437 13.1387 14.8406C12.9434 14.6062 12.5527 14.7234 12.5527 15.0359V16.4812C12.5527 16.4812 12.5527 18.9812 16.3027 18.9812C18.2168 18.9812 20.0918 17.4578 20.0918 15.5437V11.6375C20.0918 9.48901 18.334 7.7312 16.1855 7.7312ZM17.8262 2.88745C14.4668 5.42651 11.2246 3.00464 11.0684 2.88745C10.834 2.69214 10.5215 2.69214 10.2871 2.88745C10.0527 3.08276 10.0137 3.43433 10.1309 3.6687C10.209 3.78589 11.7324 6.52026 14.7793 6.52026C17.9043 6.52026 18.6465 5.27026 18.7637 5.03589C18.8027 4.95776 18.8027 4.84058 18.8027 4.76245V3.3562C18.8027 2.84839 18.2168 2.57495 17.8262 2.88745Z" fill="#1D2833"/>
</svg>
